<?xml version='1.0' encoding='utf-8'?>
<svg xmlns="http://www.w3.org/2000/svg" enable-background="new 0 0 7680 4320" version="1.1" viewBox="0 0 7680 4320"> <pattern id="a" x="2560" y="1360" width="302" height="306" overflow="visible" patternUnits="userSpaceOnUse" viewBox="0 -306 302 306"> <rect y="-306" width="302" height="306" fill="none"/> <polygon points="161.92 -68.83 161.33 -128.05 202.08 -87.492 202.67 -28.268"/> <polygon points="99.203 -85.763 140.67 -128.05 140.8 -70.56 99.334 -28.269"/> <polygon points="66.83 -142.08 126.05 -142.67 85.492 -101.92 26.268 -101.33"/> <polygon points="83.762 -204.8 126.05 -163.33 68.56 -163.2 26.268 -204.67"/> <polygon points="140.08 -237.17 140.67 -177.95 99.92 -218.51 99.334 -277.73"/> <polygon points="202.8 -220.24 161.33 -177.95 161.2 -235.44 202.67 -277.73"/> <polygon points="235.17 -163.92 175.95 -163.33 216.51 -204.08 275.73 -204.67"/> <polygon points="218.24 -101.2 175.95 -142.67 233.44 -142.8 275.73 -101.33"/> <polygon points="243.48 -303 299.07 -247.41 299.07 -303"/> <path d="m243.48-3h55.59v-55.59c-21.709 21.709-33.881 33.881-55.59 55.59z"/> <path d="m2.9313-58.59v55.59h55.59c-21.709-21.709-33.881-33.881-55.59-55.59z"/> <polygon points="2.9313 -303 2.9313 -247.41 58.521 -303"/> </pattern> <rect width="7680" height="4320" fill="url(#a)"/> </svg>